# xmcd
#
# Track frame offsets:
# 150
# 13296
# 25524
# 40597
# 53919
# 68403
# 82946
# 95731
# 108327
# 119868
#
# Disc length: 1753 seconds
#
#
# Revision: 0
# Processed by: cddbd v1.5.1PL2 Copyright (c) Steve Scherf et al.
# Submitted via: FreeRIP 2.945 
#
DISCID=7906d70a
DTITLE=Gene Watson - Between This Time And The Next Time
DYEAR=1900
DGENRE=Country
TTITLE0=BetweenThis Time And The Next Time
TTITLE1=I'm Tellin' Me A Lie
TTITLE2=Maybe I Should have Been Listening
TTITLE3=Come Back Home
TTITLE4=Three
TTITLE5=Down Here On My Knees
TTITLE6=Even At It's Worst It's Still The Best
TTITLE7=We've Got A Bad Thing Going
TTITLE8=Look In My Baby's Eyes
TTITLE9=I'm Gonna Kill You
EXTD=
EXTT0=
EXTT1=
EXTT2=
EXTT3=
EXTT4=
EXTT5=
EXTT6=
EXTT7=
EXTT8=
EXTT9=
PLAYORDER=
